<mxfile>
  <diagram name="Diagrama General" id="1">
    <mxGraphModel dx="1000" dy="1000" grid="1" gridSize="10" guides="1" tooltips="1" connect="1" arrows="1" fold="1" page="1" pageScale="1" pageWidth="827" pageHeight="1169">
      <root>
        <mxCell id="0"/>
        <mxCell id="1" parent="0"/>

        <!-- Storage Layer -->
        <mxCell id="2" value="CollectionManager" style="shape=swimlane;html=1;" vertex="1" parent="1">
          <mxGeometry x="80" y="40" width="180" height="120" as="geometry"/>
        </mxCell>

        <mxCell id="3" value="Worker" style="shape=swimlane;html=1;" vertex="1" parent="1">
          <mxGeometry x="400" y="40" width="180" height="120" as="geometry"/>
        </mxCell>

        <!-- Reader Layer -->
        <mxCell id="4" value="JsonSafeReader" style="shape=swimlane;html=1;" vertex="1" parent="1">
          <mxGeometry x="80" y="220" width="180" height="120" as="geometry"/>
        </mxCell>

        <mxCell id="5" value="FileInputManager" style="shape=swimlane;html=1;" vertex="1" parent="1">
          <mxGeometry x="400" y="220" width="180" height="120" as="geometry"/>
        </mxCell>

        <mxCell id="6" value="ValidationWorker" style="shape=swimlane;html=1;" vertex="1" parent="1">
          <mxGeometry x="700" y="220" width="180" height="120" as="geometry"/>
        </mxCell>

        <!-- Command Layer -->
        <mxCell id="7" value="Command (abstract)" style="shape=swimlane;html=1;" vertex="1" parent="1">
          <mxGeometry x="80" y="400" width="180" height="120" as="geometry"/>
        </mxCell>

        <mxCell id="8" value="Add" style="shape=swimlane;html=1;" vertex="1" parent="1">
          <mxGeometry x="400" y="400" width="180" height="80" as="geometry"/>
        </mxCell>

        <mxCell id="9" value="RemoveLast" style="shape=swimlane;html=1;" vertex="1" parent="1">
          <mxGeometry x="700" y="400" width="180" height="80" as="geometry"/>
        </mxCell>

        <mxCell id="10" value="ExecuteFile" style="shape=swimlane;html=1;" vertex="1" parent="1">
          <mxGeometry x="1000" y="400" width="180" height="80" as="geometry"/>
        </mxCell>

        <!-- Manager Layer -->
        <mxCell id="11" value="CommandsManager" style="shape=swimlane;html=1;" vertex="1" parent="1">
          <mxGeometry x="80" y="600" width="180" height="120" as="geometry"/>
        </mxCell>

        <mxCell id="12" value="Handler" style="shape=swimlane;html=1;" vertex="1" parent="1">
          <mxGeometry x="400" y="600" width="180" height="120" as="geometry"/>
        </mxCell>

        <mxCell id="13" value="RuntimeManager" style="shape=swimlane;html=1;" vertex="1" parent="1">
          <mxGeometry x="700" y="600" width="180" height="120" as="geometry"/>
        </mxCell>

        <!-- Input/Output Layer -->
        <mxCell id="14" value="Request" style="shape=swimlane;html=1;" vertex="1" parent="1">
          <mxGeometry x="80" y="800" width="180" height="80" as="geometry"/>
        </mxCell>

        <mxCell id="15" value="Response" style="shape=swimlane;html=1;" vertex="1" parent="1">
          <mxGeometry x="400" y="800" width="180" height="80" as="geometry"/>
        </mxCell>

        <!-- Enums -->
        <mxCell id="16" value="RequestState (enum)" style="shape=swimlane;html=1;" vertex="1" parent="1">
          <mxGeometry x="700" y="800" width="180" height="80" as="geometry"/>
        </mxCell>

        <mxCell id="17" value="Position (enum)" style="shape=swimlane;html=1;" vertex="1" parent="1">
          <mxGeometry x="1000" y="800" width="180" height="80" as="geometry"/>
        </mxCell>

        <mxCell id="18" value="Status (enum)" style="shape=swimlane;html=1;" vertex="1" parent="1">
          <mxGeometry x="1300" y="800" width="180" height="80" as="geometry"/>
        </mxCell>

        <!-- Relations -->
        <mxCell id="19" style="edgeStyle=orthogonalEdgeStyle;endArrow=block;" edge="1" parent="1" source="4" target="5">
          <mxGeometry relative="1" as="geometry"/>
        </mxCell>

        <mxCell id="20" style="edgeStyle=orthogonalEdgeStyle;endArrow=block;" edge="1" parent="1" source="4" target="2">
          <mxGeometry relative="1" as="geometry"/>
        </mxCell>

        <mxCell id="21" style="edgeStyle=orthogonalEdgeStyle;endArrow=block;" edge="1" parent="1" source="7" target="2">
          <mxGeometry relative="1" as="geometry"/>
        </mxCell>

        <mxCell id="22" style="edgeStyle=orthogonalEdgeStyle;endArrow=block;" edge="1" parent="1" source="8" target="7">
          <mxGeometry relative="1" as="geometry"/>
        </mxCell>

        <mxCell id="23" style="edgeStyle=orthogonalEdgeStyle;endArrow=block;" edge="1" parent="1" source="9" target="7">
          <mxGeometry relative="1" as="geometry"/>
        </mxCell>

        <mxCell id="24" style="edgeStyle=orthogonalEdgeStyle;endArrow=block;" edge="1" parent="1" source="10" target="7">
          <mxGeometry relative="1" as="geometry"/>
        </mxCell>

        <mxCell id="25" style="edgeStyle=orthogonalEdgeStyle;endArrow=block;" edge="1" parent="1" source="11" target="7">
          <mxGeometry relative="1" as="geometry"/>
        </mxCell>

        <mxCell id="26" style="edgeStyle=orthogonalEdgeStyle;endArrow=block;" edge="1" parent="1" source="12" target="11">
          <mxGeometry relative="1" as="geometry"/>
        </mxCell>

        <mxCell id="27" style="edgeStyle=orthogonalEdgeStyle;endArrow=block;" edge="1" parent="1" source="13" target="12">
          <mxGeometry relative="1" as="geometry"/>
        </mxCell>

        <mxCell id="28" style="edgeStyle=orthogonalEdgeStyle;endArrow=block;" edge="1" parent="1" source="12" target="14">
          <mxGeometry relative="1" as="geometry"/>
        </mxCell>

        <mxCell id="29" style="edgeStyle=orthogonalEdgeStyle;endArrow=block;" edge="1" parent="1" source="15" target="16">
          <mxGeometry relative="1" as="geometry"/>
        </mxCell>

      </root>
    </mxGraphModel>
  </diagram>
</mxfile>
